<svg width="2049" height="503" viewBox="0 0 2049 503" fill="none" xmlns="http://www.w3.org/2000/svg">
<g clip-path="url(#clip0_2815_32640)">
<path fill-rule="evenodd" clip-rule="evenodd" d="M467.935 454.287L234.213 47.814L0.490723 454.287H467.935ZM703.677 435.784L899.001 66.291H814.515L679.777 334.63L545.038 66.291H460.552L655.876 435.784H703.677ZM2034.8 66.291V435.785H1964.86V66.291H2034.8ZM1645.47 297.873C1645.47 269.077 1651.48 243.75 1663.5 221.893C1675.52 200.035 1692.28 183.209 1713.77 171.413C1735.26 159.617 1760.4 153.718 1789.18 153.718C1814.68 153.718 1837.63 159.27 1858.03 170.372C1878.43 181.474 1894.64 197.954 1906.66 219.811C1918.68 241.669 1924.88 268.383 1925.24 299.955V316.088H1719.24C1720.69 338.986 1727.43 357.027 1739.45 370.211C1751.84 383.048 1768.42 389.466 1789.18 389.466C1802.29 389.466 1814.32 385.997 1825.24 379.058C1836.17 372.119 1844.37 362.752 1849.83 350.956L1921.42 356.16C1912.67 382.18 1896.28 402.997 1872.24 418.609C1848.19 434.222 1820.51 442.028 1789.18 442.028C1760.4 442.028 1735.26 436.13 1713.77 424.334C1692.28 412.538 1675.52 395.711 1663.5 373.854C1651.48 351.996 1645.47 326.67 1645.47 297.873ZM1853.11 271.853C1850.56 249.301 1843.46 232.822 1831.8 222.413C1820.14 211.658 1805.94 206.28 1789.18 206.28C1769.87 206.28 1754.21 212.005 1742.19 223.454C1730.16 234.903 1722.7 251.036 1719.78 271.853H1853.11ZM1527.45 222.413C1539.11 231.781 1546.39 244.791 1549.31 261.444L1621.43 257.801C1618.88 236.638 1611.42 218.25 1599.03 202.637C1586.64 187.025 1570.62 175.056 1550.94 166.729C1531.64 158.055 1510.33 153.718 1487.01 153.718C1458.23 153.718 1433.1 159.617 1411.6 171.413C1390.11 183.209 1373.35 200.035 1361.33 221.893C1349.31 243.75 1343.3 269.077 1343.3 297.873C1343.3 326.67 1349.31 351.996 1361.33 373.854C1373.35 395.711 1390.11 412.538 1411.6 424.334C1433.1 436.13 1458.23 442.028 1487.01 442.028C1511.05 442.028 1532.91 437.691 1552.58 429.018C1572.26 419.997 1588.28 407.334 1600.67 391.027C1613.06 374.721 1620.52 355.639 1623.07 333.782L1550.4 330.659C1547.85 349.047 1540.74 363.272 1529.09 373.333C1517.43 383.048 1503.4 387.905 1487.01 387.905C1464.43 387.905 1446.94 380.099 1434.55 364.486C1422.17 348.874 1415.98 326.67 1415.98 297.873C1415.98 269.077 1422.17 246.873 1434.55 231.26C1446.94 215.648 1464.43 207.842 1487.01 207.842C1502.68 207.842 1516.15 212.699 1527.45 222.413ZM1172.64 159.951H1237.73L1239.61 213.037C1244.23 198.011 1250.65 186.342 1258.88 178.03C1270.81 165.978 1287.45 159.951 1308.78 159.951H1335.36V216.771H1308.24C1293.05 216.771 1280.58 218.837 1270.81 222.969C1261.41 227.101 1254.18 233.644 1249.12 242.598C1244.42 251.551 1242.07 262.915 1242.07 276.689V435.784H1172.64V159.951ZM872.416 221.893C860.395 243.75 854.384 269.077 854.384 297.873C854.384 326.67 860.395 351.996 872.416 373.854C884.438 395.711 901.195 412.538 922.689 424.334C944.182 436.13 969.318 442.028 998.097 442.028C1029.42 442.028 1057.11 434.222 1081.15 418.609C1105.2 402.997 1121.59 382.18 1130.33 356.16L1058.75 350.956C1053.29 362.752 1045.09 372.119 1034.16 379.058C1023.23 385.997 1011.21 389.466 998.097 389.466C977.332 389.466 960.757 383.048 948.371 370.211C936.349 357.027 929.61 338.986 928.153 316.088H1134.16V299.955C1133.79 268.383 1127.6 241.669 1115.58 219.811C1103.56 197.954 1087.35 181.474 1066.95 170.372C1046.55 159.27 1023.6 153.718 998.097 153.718C969.318 153.718 944.182 159.617 922.689 171.413C901.195 183.209 884.438 200.035 872.416 221.893ZM1040.72 222.413C1052.37 232.822 1059.48 249.301 1062.03 271.853H928.699C931.614 251.036 939.082 234.903 951.103 223.454C963.125 212.005 978.789 206.28 998.097 206.28C1014.85 206.28 1029.06 211.658 1040.72 222.413Z" fill="black"/>
</g>
<defs>
<clipPath id="clip0_2815_32640">
<rect width="2048" height="502" fill="white" transform="translate(0.245361 0.0615234)"/>
</clipPath>
</defs>
</svg>
